<svg width="42" height="42" viewBox="0 0 42 42" fill="none" xmlns="http://www.w3.org/2000/svg">
<path d="M21 0C32.598 0 42 9.40202 42 21C42 21.655 41.9678 22.3027 41.9092 22.9424C41.5518 19.6865 40.1621 18 38.5 18C36.5671 18 35.0001 20.2807 35 24.6582C35 28.8995 36.4708 30.8751 38.3203 30.9941L38.5 31C38.8826 31 39.2501 30.9211 39.5947 30.7637C36.0799 37.4439 29.0728 42 21 42C12.5889 42 5.33404 37.0544 1.98145 29.9131C2.40269 30.2944 2.87067 30.6227 3.37598 30.8877C4.16762 31.3028 5.03441 31.556 5.9248 31.6348C6.81524 31.7135 7.71316 31.6164 8.56543 31.3467C9.41764 31.077 10.2086 30.6411 10.8916 30.0645C11.5745 29.4878 12.1362 28.7812 12.5449 27.9863C12.5507 27.9751 12.5562 27.9627 12.5615 27.9512L12.5703 27.9336C12.5758 27.9217 12.5839 27.904 12.5947 27.8809C12.6168 27.8339 12.6498 27.764 12.6924 27.6738C12.7775 27.4934 12.9013 27.2306 13.0576 26.9033C13.3705 26.2485 13.812 25.3349 14.3232 24.3008C15.3487 22.2267 16.647 19.689 17.7637 17.7793C17.7728 17.7637 17.7818 17.7475 17.79 17.7314L19.6221 14.1621L19.623 30.6387C19.623 31.1909 20.0699 31.6385 20.6221 31.6387C21.1744 31.6387 21.623 31.191 21.623 30.6387L21.6221 10.0264C21.622 9.5648 21.306 9.16334 20.8574 9.05469C20.4087 8.94635 19.9433 9.15868 19.7324 9.56934L16.0166 16.8037C14.8677 18.7724 13.5536 21.3443 12.5303 23.4141C12.0142 24.4579 11.5697 25.38 11.2539 26.041C11.096 26.3715 10.9702 26.6372 10.8838 26.8203C10.8408 26.9115 10.8068 26.9821 10.7842 27.0303C10.7729 27.0544 10.7636 27.0735 10.7578 27.0859C10.7573 27.0869 10.7563 27.0879 10.7559 27.0889C10.4687 27.6416 10.0766 28.1332 9.60059 28.5352C9.11933 28.9415 8.5624 29.2494 7.96191 29.4395C7.36142 29.6295 6.72895 29.699 6.10156 29.6436C5.47404 29.588 4.8626 29.4078 4.30469 29.1152C3.74713 28.8227 3.25289 28.4228 2.85059 27.9385C2.4481 27.4538 2.14514 26.8941 1.95996 26.292C1.77483 25.6899 1.71088 25.0567 1.77148 24.4297C1.83215 23.8027 2.01642 23.1931 2.31348 22.6377C2.31625 22.6325 2.31959 22.6273 2.32227 22.6221L7.5625 12.377C7.91334 11.708 8.5162 11.2055 9.2373 10.9805C9.9582 10.7557 10.7394 10.8261 11.4082 11.1768C12.077 11.5275 12.5787 12.1307 12.8037 12.8516C13.0286 13.5726 12.9581 14.3536 12.6074 15.0225L12.6035 15.0322L7.34082 25.3193C7.22701 25.5363 7.0307 25.6994 6.79688 25.7725C6.56299 25.8453 6.30876 25.8227 6.0918 25.709C5.87481 25.5951 5.7117 25.399 5.63867 25.165C5.5658 24.9312 5.58943 24.6779 5.70312 24.4609L5.70703 24.4521L10.9746 14.1553C11.226 13.6637 11.0315 13.0611 10.54 12.8096C10.0484 12.5581 9.44593 12.7526 9.19434 13.2441L3.92676 23.54C3.57052 24.2249 3.49958 25.0235 3.72949 25.7607C3.96048 26.5009 4.47645 27.1193 5.16309 27.4795C5.84983 27.8396 6.65231 27.9125 7.39258 27.6816C8.13275 27.4506 8.75117 26.9347 9.11133 26.248L9.11621 26.2393L14.3828 15.9424H14.3818C14.9751 14.8056 15.0948 13.4802 14.7129 12.2559C14.3299 11.0287 13.4753 10.0034 12.3369 9.40625C11.1984 8.80927 9.86887 8.68856 8.6416 9.07129C7.4908 9.43033 6.51738 10.2046 5.9082 11.2383L5.79102 11.4482L5.78711 11.458L0.549805 21.6953C0.358903 22.0523 0.202046 22.4252 0.078125 22.8086C0.0272702 22.2124 0 21.6093 0 21C0 9.40202 9.40202 0 21 0ZM28.5 14C25.4625 14 23 17.1581 23 23.2197L23.0068 23.7783C23.1494 29.2656 25.4046 31.8322 28.2168 31.9922L28.5 32C31.4426 32 33.8458 29.4486 33.9932 23.7783L34 23.2197C34 17.1581 31.5376 14 28.5 14ZM28.5 16C29.2318 16 30.0181 16.348 30.707 17.4189C31.4284 18.5403 32 20.4282 32 23.2197C32 26.0156 31.4269 27.7593 30.7451 28.7441C30.1134 29.6564 29.3453 30 28.5 30C27.6548 30 26.8866 29.6564 26.2549 28.7441C25.5731 27.7593 25 26.0156 25 23.2197C25 20.4282 25.5716 18.5403 26.293 17.4189C26.9819 16.348 27.7682 16 28.5 16ZM38.5 20C38.5557 20 38.8519 19.9974 39.2354 20.6738C39.6395 21.3869 39.9999 22.6727 40 24.6582C40 26.65 39.6369 27.8244 39.2676 28.4297C38.9465 28.9558 38.6767 29 38.5 29C38.3233 29 38.0535 28.9558 37.7324 28.4297C37.3631 27.8244 37 26.65 37 24.6582C37.0001 22.6727 37.3605 21.3869 37.7646 20.6738C38.148 19.9975 38.4442 20 38.5 20Z" fill="#059669"/>
</svg>
